<?xml version="1.0" standalone="no"?>
<!DOCTYPE svg PUBLIC "-//W3C//DTD SVG 20010904//EN"
 "http://www.w3.org/TR/2001/REC-SVG-20010904/DTD/svg10.dtd">
<svg version="1.0" xmlns="http://www.w3.org/2000/svg"
 width="192.000000pt" height="192.000000pt" viewBox="0 0 192.000000 192.000000"
 preserveAspectRatio="xMidYMid meet">
<metadata>
Created by potrace 1.14, written by Peter Selinger 2001-2017
</metadata>
<g transform="translate(0.000000,192.000000) scale(0.100000,-0.100000)"
fill="#000000" stroke="none">
<path d="M870 1838 c-30 -4 -82 -10 -115 -13 -172 -15 -228 -77 -181 -202 24
-65 26 -130 5 -149 -11 -9 -19 -13 -19 -9 0 5 -17 -13 -37 -39 -31 -40 -40
-46 -63 -41 -68 15 -131 -52 -136 -144 -2 -33 1 -75 7 -95 11 -39 54 -96 73
-96 7 0 18 -22 25 -48 6 -27 27 -79 45 -115 l34 -67 -54 -31 c-53 -30 -60 -41
-48 -73 9 -24 45 -19 97 14 26 16 51 30 56 30 4 0 21 -11 37 -25 34 -30 156
-92 199 -101 52 -11 174 -12 223 -2 116 24 246 114 311 217 28 43 36 49 66 49
74 0 121 75 113 182 -5 69 -27 107 -76 130 -19 9 -35 25 -39 40 -3 14 -15 43
-25 64 l-20 39 31 24 c34 27 53 57 76 127 15 43 14 48 -5 86 -53 105 -313 242
-480 253 -25 2 -70 -1 -100 -5z"/>
<path d="M1315 565 c-32 -13 -85 -61 -85 -77 0 -12 -41 -26 -97 -34 -27 -3
-57 -8 -68 -10 -11 -2 -36 -7 -55 -10 -19 -3 -82 -14 -138 -25 -107 -20 -122
-19 -122 7 0 37 -35 116 -59 135 -29 23 -55 22 -136 -7 -54 -18 -95 -49 -95
-71 0 -20 -28 -16 -35 6 -18 56 -107 74 -151 30 -31 -32 -34 -60 -14 -139 15
-62 15 -66 -3 -83 -15 -15 -17 -27 -12 -63 12 -93 33 -111 106 -95 59 14 55
15 69 -19 27 -65 87 -76 212 -40 93 27 138 62 141 107 1 18 3 33 5 33 1 0 80
13 175 29 94 16 190 32 212 35 22 4 48 9 57 12 9 3 35 -7 57 -21 105 -70 237
-23 269 97 11 42 1 105 -24 143 -38 59 -143 89 -209 60z"/>
</g>
</svg>
